<?xml version="1.0" encoding="UTF-8" standalone="no"?>
<!DOCTYPE svg PUBLIC "-//W3C//DTD SVG 1.1//EN"
 "http://www.w3.org/Graphics/SVG/1.1/DTD/svg11.dtd">
<!-- Generated by graphviz version 14.0.1 (20251006.0113)
 -->
<!-- Title: model Pages: 1 -->
<svg width="342pt" height="1620pt"
 viewBox="0.00 0.00 342.00 1620.00" xmlns="http://www.w3.org/2000/svg" xmlns:xlink="http://www.w3.org/1999/xlink">
<g id="graph0" class="graph" transform="scale(0.794702 0.794702) rotate(0) translate(4 2034.5)">
<title>model</title>
<polygon fill="white" stroke="none" points="-4,4 -4,-2034.5 426.25,-2034.5 426.25,4 -4,4"/>
<g id="clust1" class="cluster">
<title>cluster_2</title>
<polygon fill="none" stroke="black" stroke-dasharray="5,2" points="193,-1681 193,-1885.5 383,-1885.5 383,-1681 193,-1681"/>
<text xml:space="preserve" text-anchor="middle" x="231" y="-1870.1" font-family="Times New Roman,serif" font-size="12.00">TdsNetwork</text>
</g>
<g id="clust2" class="cluster">
<title>cluster_3</title>
<polygon fill="none" stroke="black" stroke-dasharray="5,2" points="201,-1689 201,-1855.25 375,-1855.25 375,-1689 201,-1689"/>
<text xml:space="preserve" text-anchor="middle" x="233.75" y="-1839.85" font-family="Times New Roman,serif" font-size="12.00">Sequential</text>
</g>
<g id="clust3" class="cluster">
<title>cluster_4</title>
<polygon fill="none" stroke="black" stroke-dasharray="5,2" points="8,-954.25 8,-1499 254,-1499 254,-954.25 8,-954.25"/>
<text xml:space="preserve" text-anchor="middle" x="56.88" y="-1483.6" font-family="Times New Roman,serif" font-size="12.00">SequentialLSTM</text>
</g>
<g id="clust4" class="cluster">
<title>cluster_5</title>
<polygon fill="none" stroke="black" stroke-dasharray="5,2" points="16,-1230 16,-1313.75 246,-1313.75 246,-1230 16,-1230"/>
<text xml:space="preserve" text-anchor="middle" x="40.12" y="-1298.35" font-family="Times New Roman,serif" font-size="12.00">LSTM</text>
</g>
<g id="clust5" class="cluster">
<title>cluster_6</title>
<polygon fill="none" stroke="black" stroke-dasharray="5,2" points="80,-962.25 80,-1128.5 246,-1128.5 246,-962.25 80,-962.25"/>
<text xml:space="preserve" text-anchor="middle" x="112.75" y="-1113.1" font-family="Times New Roman,serif" font-size="12.00">Sequential</text>
</g>
<g id="clust6" class="cluster">
<title>cluster_7</title>
<polygon fill="none" stroke="black" stroke-dasharray="5,2" points="128,-392.5 128,-937.25 374,-937.25 374,-392.5 128,-392.5"/>
<text xml:space="preserve" text-anchor="middle" x="176.88" y="-921.85" font-family="Times New Roman,serif" font-size="12.00">SequentialLSTM</text>
</g>
<g id="clust7" class="cluster">
<title>cluster_8</title>
<polygon fill="none" stroke="black" stroke-dasharray="5,2" points="136,-668.25 136,-752 366,-752 366,-668.25 136,-668.25"/>
<text xml:space="preserve" text-anchor="middle" x="160.12" y="-736.6" font-family="Times New Roman,serif" font-size="12.00">LSTM</text>
</g>
<g id="clust8" class="cluster">
<title>cluster_9</title>
<polygon fill="none" stroke="black" stroke-dasharray="5,2" points="144,-400.5 144,-566.75 310,-566.75 310,-400.5 144,-400.5"/>
<text xml:space="preserve" text-anchor="middle" x="176.75" y="-551.35" font-family="Times New Roman,serif" font-size="12.00">Sequential</text>
</g>
<!-- 0 -->
<g id="node1" class="node">
<title>0</title>
<polygon fill="lightyellow" stroke="none" points="349.38,-2030.5 226.62,-2030.5 226.62,-1995 349.38,-1995 349.38,-2030.5"/>
<polygon fill="none" stroke="black" points="226.62,-1995 226.62,-2030.5 288.38,-2030.5 288.38,-1995 226.62,-1995"/>
<text xml:space="preserve" text-anchor="start" x="231.62" y="-2016" font-family="Linux libertine" font-size="10.00">input&#45;tensor</text>
<text xml:space="preserve" text-anchor="start" x="241" y="-2003.25" font-family="Linux libertine" font-size="10.00">depth:0</text>
<polygon fill="none" stroke="black" points="288.38,-1995 288.38,-2030.5 349.38,-2030.5 349.38,-1995 288.38,-1995"/>
<text xml:space="preserve" text-anchor="start" x="293.38" y="-2009.62" font-family="Linux libertine" font-size="10.00">(1, 500, 16)</text>
</g>
<!-- 1 -->
<g id="node2" class="node">
<title>1</title>
<polygon fill="aliceblue" stroke="none" points="367.88,-1958 208.12,-1958 208.12,-1912.5 367.88,-1912.5 367.88,-1958"/>
<polygon fill="none" stroke="black" points="208.12,-1912.5 208.12,-1958 260.12,-1958 260.12,-1912.5 208.12,-1912.5"/>
<text xml:space="preserve" text-anchor="start" x="213.12" y="-1938.5" font-family="Linux libertine" font-size="10.00">transpose</text>
<text xml:space="preserve" text-anchor="start" x="217.62" y="-1925.75" font-family="Linux libertine" font-size="10.00">depth:1</text>
<polygon fill="none" stroke="black" points="260.12,-1935.25 260.12,-1958 303.88,-1958 303.88,-1935.25 260.12,-1935.25"/>
<text xml:space="preserve" text-anchor="start" x="269.62" y="-1943.5" font-family="Linux libertine" font-size="10.00">input:</text>
<polygon fill="none" stroke="black" points="303.88,-1935.25 303.88,-1958 367.88,-1958 367.88,-1935.25 303.88,-1935.25"/>
<text xml:space="preserve" text-anchor="start" x="308.88" y="-1943.5" font-family="Linux libertine" font-size="10.00">(1, 500, 16) </text>
<polygon fill="none" stroke="black" points="260.12,-1912.5 260.12,-1935.25 303.88,-1935.25 303.88,-1912.5 260.12,-1912.5"/>
<text xml:space="preserve" text-anchor="start" x="265.12" y="-1920.75" font-family="Linux libertine" font-size="10.00">output: </text>
<polygon fill="none" stroke="black" points="303.88,-1912.5 303.88,-1935.25 367.88,-1935.25 367.88,-1912.5 303.88,-1912.5"/>
<text xml:space="preserve" text-anchor="start" x="308.88" y="-1920.75" font-family="Linux libertine" font-size="10.00">(1, 16, 500) </text>
</g>
<!-- 0&#45;&gt;1 -->
<g id="edge1" class="edge">
<title>0&#45;&gt;1</title>
<path fill="none" stroke="black" d="M288,-1995.37C288,-1987.71 288,-1978.3 288,-1969.26"/>
<polygon fill="black" stroke="black" points="291.5,-1969.28 288,-1959.28 284.5,-1969.28 291.5,-1969.28"/>
</g>
<!-- 2 -->
<g id="node3" class="node">
<title>2</title>
<polygon fill="#c1ffc1" stroke="none" points="366.75,-1825 209.25,-1825 209.25,-1779.5 366.75,-1779.5 366.75,-1825"/>
<polygon fill="none" stroke="black" points="209.25,-1779.5 209.25,-1825 259,-1825 259,-1779.5 209.25,-1779.5"/>
<text xml:space="preserve" text-anchor="start" x="214.25" y="-1805.5" font-family="Linux libertine" font-size="10.00">TdsStage</text>
<text xml:space="preserve" text-anchor="start" x="217.62" y="-1792.75" font-family="Linux libertine" font-size="10.00">depth:3</text>
<polygon fill="none" stroke="black" points="259,-1802.25 259,-1825 302.75,-1825 302.75,-1802.25 259,-1802.25"/>
<text xml:space="preserve" text-anchor="start" x="268.5" y="-1810.5" font-family="Linux libertine" font-size="10.00">input:</text>
<polygon fill="none" stroke="black" points="302.75,-1802.25 302.75,-1825 366.75,-1825 366.75,-1802.25 302.75,-1802.25"/>
<text xml:space="preserve" text-anchor="start" x="307.75" y="-1810.5" font-family="Linux libertine" font-size="10.00">(1, 16, 500) </text>
<polygon fill="none" stroke="black" points="259,-1779.5 259,-1802.25 302.75,-1802.25 302.75,-1779.5 259,-1779.5"/>
<text xml:space="preserve" text-anchor="start" x="264" y="-1787.75" font-family="Linux libertine" font-size="10.00">output: </text>
<polygon fill="none" stroke="black" points="302.75,-1779.5 302.75,-1802.25 366.75,-1802.25 366.75,-1779.5 302.75,-1779.5"/>
<text xml:space="preserve" text-anchor="start" x="307.75" y="-1787.75" font-family="Linux libertine" font-size="10.00">(1, 32, 244) </text>
</g>
<!-- 1&#45;&gt;2 -->
<g id="edge2" class="edge">
<title>1&#45;&gt;2</title>
<path fill="none" stroke="black" d="M288,-1912.62C288,-1891.85 288,-1860.2 288,-1836.29"/>
<polygon fill="black" stroke="black" points="291.5,-1836.43 288,-1826.43 284.5,-1836.43 291.5,-1836.43"/>
</g>
<!-- 3 -->
<g id="node4" class="node">
<title>3</title>
<polygon fill="#c1ffc1" stroke="none" points="366.75,-1742.5 209.25,-1742.5 209.25,-1697 366.75,-1697 366.75,-1742.5"/>
<polygon fill="none" stroke="black" points="209.25,-1697 209.25,-1742.5 259,-1742.5 259,-1697 209.25,-1697"/>
<text xml:space="preserve" text-anchor="start" x="214.25" y="-1723" font-family="Linux libertine" font-size="10.00">TdsStage</text>
<text xml:space="preserve" text-anchor="start" x="217.62" y="-1710.25" font-family="Linux libertine" font-size="10.00">depth:3</text>
<polygon fill="none" stroke="black" points="259,-1719.75 259,-1742.5 302.75,-1742.5 302.75,-1719.75 259,-1719.75"/>
<text xml:space="preserve" text-anchor="start" x="268.5" y="-1728" font-family="Linux libertine" font-size="10.00">input:</text>
<polygon fill="none" stroke="black" points="302.75,-1719.75 302.75,-1742.5 366.75,-1742.5 366.75,-1719.75 302.75,-1719.75"/>
<text xml:space="preserve" text-anchor="start" x="307.75" y="-1728" font-family="Linux libertine" font-size="10.00">(1, 32, 244) </text>
<polygon fill="none" stroke="black" points="259,-1697 259,-1719.75 302.75,-1719.75 302.75,-1697 259,-1697"/>
<text xml:space="preserve" text-anchor="start" x="264" y="-1705.25" font-family="Linux libertine" font-size="10.00">output: </text>
<polygon fill="none" stroke="black" points="302.75,-1697 302.75,-1719.75 366.75,-1719.75 366.75,-1697 302.75,-1697"/>
<text xml:space="preserve" text-anchor="start" x="307.75" y="-1705.25" font-family="Linux libertine" font-size="10.00">(1, 64, 108) </text>
</g>
<!-- 2&#45;&gt;3 -->
<g id="edge3" class="edge">
<title>2&#45;&gt;3</title>
<path fill="none" stroke="black" d="M288,-1779.68C288,-1771.74 288,-1762.55 288,-1753.83"/>
<polygon fill="black" stroke="black" points="291.5,-1753.9 288,-1743.9 284.5,-1753.9 291.5,-1753.9"/>
</g>
<!-- 4 -->
<g id="node5" class="node">
<title>4</title>
<polygon fill="aliceblue" stroke="none" points="369.75,-1654 206.25,-1654 206.25,-1608.5 369.75,-1608.5 369.75,-1654"/>
<polygon fill="none" stroke="black" points="206.25,-1608.5 206.25,-1654 262,-1654 262,-1608.5 206.25,-1608.5"/>
<text xml:space="preserve" text-anchor="start" x="211.25" y="-1634.5" font-family="Linux libertine" font-size="10.00">interpolate</text>
<text xml:space="preserve" text-anchor="start" x="217.62" y="-1621.75" font-family="Linux libertine" font-size="10.00">depth:1</text>
<polygon fill="none" stroke="black" points="262,-1631.25 262,-1654 305.75,-1654 305.75,-1631.25 262,-1631.25"/>
<text xml:space="preserve" text-anchor="start" x="271.5" y="-1639.5" font-family="Linux libertine" font-size="10.00">input:</text>
<polygon fill="none" stroke="black" points="305.75,-1631.25 305.75,-1654 369.75,-1654 369.75,-1631.25 305.75,-1631.25"/>
<text xml:space="preserve" text-anchor="start" x="310.75" y="-1639.5" font-family="Linux libertine" font-size="10.00">(1, 64, 108) </text>
<polygon fill="none" stroke="black" points="262,-1608.5 262,-1631.25 305.75,-1631.25 305.75,-1608.5 262,-1608.5"/>
<text xml:space="preserve" text-anchor="start" x="267" y="-1616.75" font-family="Linux libertine" font-size="10.00">output: </text>
<polygon fill="none" stroke="black" points="305.75,-1608.5 305.75,-1631.25 369.75,-1631.25 369.75,-1608.5 305.75,-1608.5"/>
<text xml:space="preserve" text-anchor="start" x="316" y="-1616.75" font-family="Linux libertine" font-size="10.00">(1, 64, 2) </text>
</g>
<!-- 3&#45;&gt;4 -->
<g id="edge4" class="edge">
<title>3&#45;&gt;4</title>
<path fill="none" stroke="black" d="M288,-1697.37C288,-1687.67 288,-1675.98 288,-1665.19"/>
<polygon fill="black" stroke="black" points="291.5,-1665.5 288,-1655.5 284.5,-1665.5 291.5,-1665.5"/>
</g>
<!-- 5 -->
<g id="node6" class="node">
<title>5</title>
<polygon fill="aliceblue" stroke="none" points="282.25,-1571.5 121.75,-1571.5 121.75,-1526 282.25,-1526 282.25,-1571.5"/>
<polygon fill="none" stroke="black" points="121.75,-1526 121.75,-1571.5 185,-1571.5 185,-1526 121.75,-1526"/>
<text xml:space="preserve" text-anchor="start" x="126.75" y="-1552" font-family="Linux libertine" font-size="10.00">__getitem__</text>
<text xml:space="preserve" text-anchor="start" x="136.88" y="-1539.25" font-family="Linux libertine" font-size="10.00">depth:1</text>
<polygon fill="none" stroke="black" points="185,-1548.75 185,-1571.5 228.75,-1571.5 228.75,-1548.75 185,-1548.75"/>
<text xml:space="preserve" text-anchor="start" x="194.5" y="-1557" font-family="Linux libertine" font-size="10.00">input:</text>
<polygon fill="none" stroke="black" points="228.75,-1548.75 228.75,-1571.5 282.25,-1571.5 282.25,-1548.75 228.75,-1548.75"/>
<text xml:space="preserve" text-anchor="start" x="233.75" y="-1557" font-family="Linux libertine" font-size="10.00">(1, 64, 2) </text>
<polygon fill="none" stroke="black" points="185,-1526 185,-1548.75 228.75,-1548.75 228.75,-1526 185,-1526"/>
<text xml:space="preserve" text-anchor="start" x="190" y="-1534.25" font-family="Linux libertine" font-size="10.00">output: </text>
<polygon fill="none" stroke="black" points="228.75,-1526 228.75,-1548.75 282.25,-1548.75 282.25,-1526 228.75,-1526"/>
<text xml:space="preserve" text-anchor="start" x="239.38" y="-1534.25" font-family="Linux libertine" font-size="10.00">(1, 64) </text>
</g>
<!-- 4&#45;&gt;5 -->
<g id="edge5" class="edge">
<title>4&#45;&gt;5</title>
<path fill="none" stroke="black" d="M264.95,-1608.68C255.22,-1599.56 243.73,-1588.81 233.25,-1579"/>
<polygon fill="black" stroke="black" points="235.91,-1576.69 226.22,-1572.42 231.12,-1581.81 235.91,-1576.69"/>
</g>
<!-- 12 -->
<g id="node13" class="node">
<title>12</title>
<polygon fill="aliceblue" stroke="none" points="422.25,-1015.75 261.75,-1015.75 261.75,-970.25 422.25,-970.25 422.25,-1015.75"/>
<polygon fill="none" stroke="black" points="261.75,-970.25 261.75,-1015.75 325,-1015.75 325,-970.25 261.75,-970.25"/>
<text xml:space="preserve" text-anchor="start" x="266.75" y="-996.25" font-family="Linux libertine" font-size="10.00">__getitem__</text>
<text xml:space="preserve" text-anchor="start" x="276.88" y="-983.5" font-family="Linux libertine" font-size="10.00">depth:1</text>
<polygon fill="none" stroke="black" points="325,-993 325,-1015.75 368.75,-1015.75 368.75,-993 325,-993"/>
<text xml:space="preserve" text-anchor="start" x="334.5" y="-1001.25" font-family="Linux libertine" font-size="10.00">input:</text>
<polygon fill="none" stroke="black" points="368.75,-993 368.75,-1015.75 422.25,-1015.75 422.25,-993 368.75,-993"/>
<text xml:space="preserve" text-anchor="start" x="373.75" y="-1001.25" font-family="Linux libertine" font-size="10.00">(1, 64, 2) </text>
<polygon fill="none" stroke="black" points="325,-970.25 325,-993 368.75,-993 368.75,-970.25 325,-970.25"/>
<text xml:space="preserve" text-anchor="start" x="330" y="-978.5" font-family="Linux libertine" font-size="10.00">output: </text>
<polygon fill="none" stroke="black" points="368.75,-970.25 368.75,-993 422.25,-993 422.25,-970.25 368.75,-970.25"/>
<text xml:space="preserve" text-anchor="start" x="379.38" y="-978.5" font-family="Linux libertine" font-size="10.00">(1, 64) </text>
</g>
<!-- 4&#45;&gt;12 -->
<g id="edge6" class="edge">
<title>4&#45;&gt;12</title>
<path fill="none" stroke="black" d="M303.05,-1608.79C312.53,-1593.16 323,-1571.09 323,-1549.75 323,-1549.75 323,-1549.75 323,-1074.5 323,-1058.41 326.64,-1040.98 330.73,-1026.47"/>
<polygon fill="black" stroke="black" points="334.06,-1027.58 333.61,-1016.99 327.36,-1025.54 334.06,-1027.58"/>
</g>
<!-- 6 -->
<g id="node7" class="node">
<title>6</title>
<polygon fill="aliceblue" stroke="none" points="238.12,-1468.75 73.88,-1468.75 73.88,-1423.25 238.12,-1423.25 238.12,-1468.75"/>
<polygon fill="none" stroke="black" points="73.88,-1423.25 73.88,-1468.75 116.88,-1468.75 116.88,-1423.25 73.88,-1423.25"/>
<text xml:space="preserve" text-anchor="start" x="89" y="-1449.25" font-family="Linux libertine" font-size="10.00">cat</text>
<text xml:space="preserve" text-anchor="start" x="78.88" y="-1436.5" font-family="Linux libertine" font-size="10.00">depth:2</text>
<polygon fill="none" stroke="black" points="116.88,-1446 116.88,-1468.75 160.62,-1468.75 160.62,-1446 116.88,-1446"/>
<text xml:space="preserve" text-anchor="start" x="126.38" y="-1454.25" font-family="Linux libertine" font-size="10.00">input:</text>
<polygon fill="none" stroke="black" points="160.62,-1446 160.62,-1468.75 238.12,-1468.75 238.12,-1446 160.62,-1446"/>
<text xml:space="preserve" text-anchor="start" x="165.62" y="-1454.25" font-family="Linux libertine" font-size="10.00">(1, 64), (1, 20) </text>
<polygon fill="none" stroke="black" points="116.88,-1423.25 116.88,-1446 160.62,-1446 160.62,-1423.25 116.88,-1423.25"/>
<text xml:space="preserve" text-anchor="start" x="121.88" y="-1431.5" font-family="Linux libertine" font-size="10.00">output: </text>
<polygon fill="none" stroke="black" points="160.62,-1423.25 160.62,-1446 238.12,-1446 238.12,-1423.25 160.62,-1423.25"/>
<text xml:space="preserve" text-anchor="start" x="183.25" y="-1431.5" font-family="Linux libertine" font-size="10.00">(1, 84) </text>
</g>
<!-- 5&#45;&gt;6 -->
<g id="edge7" class="edge">
<title>5&#45;&gt;6</title>
<path fill="none" stroke="black" d="M192.24,-1526.38C185.94,-1512.59 177.63,-1494.38 170.56,-1478.89"/>
<polygon fill="black" stroke="black" points="173.87,-1477.7 166.53,-1470.06 167.5,-1480.61 173.87,-1477.7"/>
</g>
<!-- 7 -->
<g id="node8" class="node">
<title>7</title>
<polygon fill="aliceblue" stroke="none" points="227.5,-1386.25 74.5,-1386.25 74.5,-1340.75 227.5,-1340.75 227.5,-1386.25"/>
<polygon fill="none" stroke="black" points="74.5,-1340.75 74.5,-1386.25 130.25,-1386.25 130.25,-1340.75 74.5,-1340.75"/>
<text xml:space="preserve" text-anchor="start" x="79.5" y="-1366.75" font-family="Linux libertine" font-size="10.00">unsqueeze</text>
<text xml:space="preserve" text-anchor="start" x="85.88" y="-1354" font-family="Linux libertine" font-size="10.00">depth:2</text>
<polygon fill="none" stroke="black" points="130.25,-1363.5 130.25,-1386.25 174,-1386.25 174,-1363.5 130.25,-1363.5"/>
<text xml:space="preserve" text-anchor="start" x="139.75" y="-1371.75" font-family="Linux libertine" font-size="10.00">input:</text>
<polygon fill="none" stroke="black" points="174,-1363.5 174,-1386.25 227.5,-1386.25 227.5,-1363.5 174,-1363.5"/>
<text xml:space="preserve" text-anchor="start" x="184.62" y="-1371.75" font-family="Linux libertine" font-size="10.00">(1, 84) </text>
<polygon fill="none" stroke="black" points="130.25,-1340.75 130.25,-1363.5 174,-1363.5 174,-1340.75 130.25,-1340.75"/>
<text xml:space="preserve" text-anchor="start" x="135.25" y="-1349" font-family="Linux libertine" font-size="10.00">output: </text>
<polygon fill="none" stroke="black" points="174,-1340.75 174,-1363.5 227.5,-1363.5 227.5,-1340.75 174,-1340.75"/>
<text xml:space="preserve" text-anchor="start" x="179" y="-1349" font-family="Linux libertine" font-size="10.00">(1, 1, 84) </text>
</g>
<!-- 6&#45;&gt;7 -->
<g id="edge8" class="edge">
<title>6&#45;&gt;7</title>
<path fill="none" stroke="black" d="M154.66,-1423.43C154.17,-1415.49 153.6,-1406.3 153.05,-1397.58"/>
<polygon fill="black" stroke="black" points="156.55,-1397.41 152.44,-1387.64 149.56,-1397.84 156.55,-1397.41"/>
</g>
<!-- 8 -->
<g id="node9" class="node">
<title>8</title>
<polygon fill="aliceblue" stroke="none" points="237.88,-1283.5 24.13,-1283.5 24.13,-1238 237.88,-1238 237.88,-1283.5"/>
<polygon fill="none" stroke="black" points="24.12,-1238 24.12,-1283.5 67.12,-1283.5 67.12,-1238 24.12,-1238"/>
<text xml:space="preserve" text-anchor="start" x="36.62" y="-1264" font-family="Linux libertine" font-size="10.00">lstm</text>
<text xml:space="preserve" text-anchor="start" x="29.12" y="-1251.25" font-family="Linux libertine" font-size="10.00">depth:3</text>
<polygon fill="none" stroke="black" points="67.12,-1260.75 67.12,-1283.5 110.88,-1283.5 110.88,-1260.75 67.12,-1260.75"/>
<text xml:space="preserve" text-anchor="start" x="76.62" y="-1269" font-family="Linux libertine" font-size="10.00">input:</text>
<polygon fill="none" stroke="black" points="110.88,-1260.75 110.88,-1283.5 237.88,-1283.5 237.88,-1260.75 110.88,-1260.75"/>
<text xml:space="preserve" text-anchor="start" x="118.5" y="-1269" font-family="Linux libertine" font-size="10.00">(1, 1, 84), 2 x (2, 1, 128) </text>
<polygon fill="none" stroke="black" points="67.12,-1238 67.12,-1260.75 110.88,-1260.75 110.88,-1238 67.12,-1238"/>
<text xml:space="preserve" text-anchor="start" x="72.12" y="-1246.25" font-family="Linux libertine" font-size="10.00">output: </text>
<polygon fill="none" stroke="black" points="110.88,-1238 110.88,-1260.75 237.88,-1260.75 237.88,-1238 110.88,-1238"/>
<text xml:space="preserve" text-anchor="start" x="115.88" y="-1246.25" font-family="Linux libertine" font-size="10.00">(1, 1, 128), 2 x (2, 1, 128) </text>
</g>
<!-- 7&#45;&gt;8 -->
<g id="edge9" class="edge">
<title>7&#45;&gt;8</title>
<path fill="none" stroke="black" d="M146.76,-1341.13C144.07,-1327.6 140.54,-1309.83 137.51,-1294.54"/>
<polygon fill="black" stroke="black" points="140.98,-1294.04 135.6,-1284.92 134.11,-1295.41 140.98,-1294.04"/>
</g>
<!-- 9 -->
<g id="node10" class="node">
<title>9</title>
<polygon fill="aliceblue" stroke="none" points="235.88,-1201 88.12,-1201 88.12,-1155.5 235.88,-1155.5 235.88,-1201"/>
<polygon fill="none" stroke="black" points="88.12,-1155.5 88.12,-1201 133.38,-1201 133.38,-1155.5 88.12,-1155.5"/>
<text xml:space="preserve" text-anchor="start" x="93.12" y="-1181.5" font-family="Linux libertine" font-size="10.00">squeeze</text>
<text xml:space="preserve" text-anchor="start" x="94.25" y="-1168.75" font-family="Linux libertine" font-size="10.00">depth:2</text>
<polygon fill="none" stroke="black" points="133.38,-1178.25 133.38,-1201 177.12,-1201 177.12,-1178.25 133.38,-1178.25"/>
<text xml:space="preserve" text-anchor="start" x="142.88" y="-1186.5" font-family="Linux libertine" font-size="10.00">input:</text>
<polygon fill="none" stroke="black" points="177.12,-1178.25 177.12,-1201 235.88,-1201 235.88,-1178.25 177.12,-1178.25"/>
<text xml:space="preserve" text-anchor="start" x="182.12" y="-1186.5" font-family="Linux libertine" font-size="10.00">(1, 1, 128) </text>
<polygon fill="none" stroke="black" points="133.38,-1155.5 133.38,-1178.25 177.12,-1178.25 177.12,-1155.5 133.38,-1155.5"/>
<text xml:space="preserve" text-anchor="start" x="138.38" y="-1163.75" font-family="Linux libertine" font-size="10.00">output: </text>
<polygon fill="none" stroke="black" points="177.12,-1155.5 177.12,-1178.25 235.88,-1178.25 235.88,-1155.5 177.12,-1155.5"/>
<text xml:space="preserve" text-anchor="start" x="187.75" y="-1163.75" font-family="Linux libertine" font-size="10.00">(1, 128) </text>
</g>
<!-- 8&#45;&gt;9 -->
<g id="edge10" class="edge">
<title>8&#45;&gt;9</title>
<path fill="none" stroke="black" d="M139.31,-1238.18C142.47,-1229.97 146.14,-1220.42 149.6,-1211.44"/>
<polygon fill="black" stroke="black" points="152.8,-1212.88 153.13,-1202.29 146.27,-1210.37 152.8,-1212.88"/>
</g>
<!-- 15 -->
<g id="node16" class="node">
<title>15</title>
<polygon fill="aliceblue" stroke="none" points="357.88,-721.75 144.12,-721.75 144.12,-676.25 357.88,-676.25 357.88,-721.75"/>
<polygon fill="none" stroke="black" points="144.12,-676.25 144.12,-721.75 187.12,-721.75 187.12,-676.25 144.12,-676.25"/>
<text xml:space="preserve" text-anchor="start" x="156.62" y="-702.25" font-family="Linux libertine" font-size="10.00">lstm</text>
<text xml:space="preserve" text-anchor="start" x="149.12" y="-689.5" font-family="Linux libertine" font-size="10.00">depth:3</text>
<polygon fill="none" stroke="black" points="187.12,-699 187.12,-721.75 230.88,-721.75 230.88,-699 187.12,-699"/>
<text xml:space="preserve" text-anchor="start" x="196.62" y="-707.25" font-family="Linux libertine" font-size="10.00">input:</text>
<polygon fill="none" stroke="black" points="230.88,-699 230.88,-721.75 357.88,-721.75 357.88,-699 230.88,-699"/>
<text xml:space="preserve" text-anchor="start" x="238.5" y="-707.25" font-family="Linux libertine" font-size="10.00">(1, 1, 84), 2 x (2, 1, 128) </text>
<polygon fill="none" stroke="black" points="187.12,-676.25 187.12,-699 230.88,-699 230.88,-676.25 187.12,-676.25"/>
<text xml:space="preserve" text-anchor="start" x="192.12" y="-684.5" font-family="Linux libertine" font-size="10.00">output: </text>
<polygon fill="none" stroke="black" points="230.88,-676.25 230.88,-699 357.88,-699 357.88,-676.25 230.88,-676.25"/>
<text xml:space="preserve" text-anchor="start" x="235.88" y="-684.5" font-family="Linux libertine" font-size="10.00">(1, 1, 128), 2 x (2, 1, 128) </text>
</g>
<!-- 8&#45;&gt;15 -->
<g id="edge18" class="edge">
<title>8&#45;&gt;15</title>
<path fill="none" stroke="black" d="M91.83,-1238.06C84.86,-1232.85 78.17,-1226.8 73,-1220 61.4,-1204.76 59,-1198.4 59,-1179.25 59,-1179.25 59,-1179.25 59,-800.75 59,-759.8 93.67,-735.46 133.54,-721.01"/>
<polygon fill="black" stroke="black" points="134.54,-724.36 142.9,-717.85 132.3,-717.73 134.54,-724.36"/>
<text xml:space="preserve" text-anchor="middle" x="65.38" y="-989.12" font-family="Times New Roman,serif" font-size="10.00"> x2</text>
</g>
<!-- 10 -->
<g id="node11" class="node">
<title>10</title>
<polygon fill="#c1ffc1" stroke="none" points="238.38,-1098.25 87.62,-1098.25 87.62,-1052.75 238.38,-1052.75 238.38,-1098.25"/>
<polygon fill="none" stroke="black" points="87.62,-1052.75 87.62,-1098.25 147.12,-1098.25 147.12,-1052.75 87.62,-1052.75"/>
<text xml:space="preserve" text-anchor="start" x="92.62" y="-1078.75" font-family="Linux libertine" font-size="10.00">LeakyReLU</text>
<text xml:space="preserve" text-anchor="start" x="100.88" y="-1066" font-family="Linux libertine" font-size="10.00">depth:3</text>
<polygon fill="none" stroke="black" points="147.12,-1075.5 147.12,-1098.25 190.88,-1098.25 190.88,-1075.5 147.12,-1075.5"/>
<text xml:space="preserve" text-anchor="start" x="156.62" y="-1083.75" font-family="Linux libertine" font-size="10.00">input:</text>
<polygon fill="none" stroke="black" points="190.88,-1075.5 190.88,-1098.25 238.38,-1098.25 238.38,-1075.5 190.88,-1075.5"/>
<text xml:space="preserve" text-anchor="start" x="195.88" y="-1083.75" font-family="Linux libertine" font-size="10.00">(1, 128) </text>
<polygon fill="none" stroke="black" points="147.12,-1052.75 147.12,-1075.5 190.88,-1075.5 190.88,-1052.75 147.12,-1052.75"/>
<text xml:space="preserve" text-anchor="start" x="152.12" y="-1061" font-family="Linux libertine" font-size="10.00">output: </text>
<polygon fill="none" stroke="black" points="190.88,-1052.75 190.88,-1075.5 238.38,-1075.5 238.38,-1052.75 190.88,-1052.75"/>
<text xml:space="preserve" text-anchor="start" x="195.88" y="-1061" font-family="Linux libertine" font-size="10.00">(1, 128) </text>
</g>
<!-- 9&#45;&gt;10 -->
<g id="edge11" class="edge">
<title>9&#45;&gt;10</title>
<path fill="none" stroke="black" d="M162.21,-1155.88C162.35,-1142.35 162.52,-1124.58 162.67,-1109.29"/>
<polygon fill="black" stroke="black" points="166.17,-1109.73 162.77,-1099.7 159.17,-1109.66 166.17,-1109.73"/>
</g>
<!-- 11 -->
<g id="node12" class="node">
<title>11</title>
<polygon fill="#c1ffc1" stroke="none" points="230.12,-1015.75 95.88,-1015.75 95.88,-970.25 230.12,-970.25 230.12,-1015.75"/>
<polygon fill="none" stroke="black" points="95.88,-970.25 95.88,-1015.75 138.88,-1015.75 138.88,-970.25 95.88,-970.25"/>
<text xml:space="preserve" text-anchor="start" x="103.88" y="-996.25" font-family="Linux libertine" font-size="10.00">Linear</text>
<text xml:space="preserve" text-anchor="start" x="100.88" y="-983.5" font-family="Linux libertine" font-size="10.00">depth:3</text>
<polygon fill="none" stroke="black" points="138.88,-993 138.88,-1015.75 182.62,-1015.75 182.62,-993 138.88,-993"/>
<text xml:space="preserve" text-anchor="start" x="148.38" y="-1001.25" font-family="Linux libertine" font-size="10.00">input:</text>
<polygon fill="none" stroke="black" points="182.62,-993 182.62,-1015.75 230.12,-1015.75 230.12,-993 182.62,-993"/>
<text xml:space="preserve" text-anchor="start" x="187.62" y="-1001.25" font-family="Linux libertine" font-size="10.00">(1, 128) </text>
<polygon fill="none" stroke="black" points="138.88,-970.25 138.88,-993 182.62,-993 182.62,-970.25 138.88,-970.25"/>
<text xml:space="preserve" text-anchor="start" x="143.88" y="-978.5" font-family="Linux libertine" font-size="10.00">output: </text>
<polygon fill="none" stroke="black" points="182.62,-970.25 182.62,-993 230.12,-993 230.12,-970.25 182.62,-970.25"/>
<text xml:space="preserve" text-anchor="start" x="190.25" y="-978.5" font-family="Linux libertine" font-size="10.00">(1, 20) </text>
</g>
<!-- 10&#45;&gt;11 -->
<g id="edge12" class="edge">
<title>10&#45;&gt;11</title>
<path fill="none" stroke="black" d="M163,-1052.93C163,-1044.99 163,-1035.8 163,-1027.08"/>
<polygon fill="black" stroke="black" points="166.5,-1027.15 163,-1017.15 159.5,-1027.15 166.5,-1027.15"/>
</g>
<!-- 13 -->
<g id="node14" class="node">
<title>13</title>
<polygon fill="aliceblue" stroke="none" points="333.12,-907 168.88,-907 168.88,-861.5 333.12,-861.5 333.12,-907"/>
<polygon fill="none" stroke="black" points="168.88,-861.5 168.88,-907 211.88,-907 211.88,-861.5 168.88,-861.5"/>
<text xml:space="preserve" text-anchor="start" x="184" y="-887.5" font-family="Linux libertine" font-size="10.00">cat</text>
<text xml:space="preserve" text-anchor="start" x="173.88" y="-874.75" font-family="Linux libertine" font-size="10.00">depth:2</text>
<polygon fill="none" stroke="black" points="211.88,-884.25 211.88,-907 255.62,-907 255.62,-884.25 211.88,-884.25"/>
<text xml:space="preserve" text-anchor="start" x="221.38" y="-892.5" font-family="Linux libertine" font-size="10.00">input:</text>
<polygon fill="none" stroke="black" points="255.62,-884.25 255.62,-907 333.12,-907 333.12,-884.25 255.62,-884.25"/>
<text xml:space="preserve" text-anchor="start" x="260.62" y="-892.5" font-family="Linux libertine" font-size="10.00">(1, 64), (1, 20) </text>
<polygon fill="none" stroke="black" points="211.88,-861.5 211.88,-884.25 255.62,-884.25 255.62,-861.5 211.88,-861.5"/>
<text xml:space="preserve" text-anchor="start" x="216.88" y="-869.75" font-family="Linux libertine" font-size="10.00">output: </text>
<polygon fill="none" stroke="black" points="255.62,-861.5 255.62,-884.25 333.12,-884.25 333.12,-861.5 255.62,-861.5"/>
<text xml:space="preserve" text-anchor="start" x="278.25" y="-869.75" font-family="Linux libertine" font-size="10.00">(1, 84) </text>
</g>
<!-- 11&#45;&gt;13 -->
<g id="edge15" class="edge">
<title>11&#45;&gt;13</title>
<path fill="none" stroke="black" d="M180.81,-970.4C193.81,-954.63 211.61,-933.04 226.03,-915.54"/>
<polygon fill="black" stroke="black" points="228.6,-917.93 232.26,-907.99 223.19,-913.48 228.6,-917.93"/>
</g>
<!-- 19 -->
<g id="node20" class="node">
<title>19</title>
<polygon fill="aliceblue" stroke="none" points="194.75,-365.5 49.25,-365.5 49.25,-320 194.75,-320 194.75,-365.5"/>
<polygon fill="none" stroke="black" points="49.25,-320 49.25,-365.5 92.25,-365.5 92.25,-320 49.25,-320"/>
<text xml:space="preserve" text-anchor="start" x="59.5" y="-346" font-family="Linux libertine" font-size="10.00">stack</text>
<text xml:space="preserve" text-anchor="start" x="54.25" y="-333.25" font-family="Linux libertine" font-size="10.00">depth:1</text>
<polygon fill="none" stroke="black" points="92.25,-342.75 92.25,-365.5 136,-365.5 136,-342.75 92.25,-342.75"/>
<text xml:space="preserve" text-anchor="start" x="101.75" y="-351" font-family="Linux libertine" font-size="10.00">input:</text>
<polygon fill="none" stroke="black" points="136,-342.75 136,-365.5 194.75,-365.5 194.75,-342.75 136,-342.75"/>
<text xml:space="preserve" text-anchor="start" x="141" y="-351" font-family="Linux libertine" font-size="10.00">2 x (1, 20) </text>
<polygon fill="none" stroke="black" points="92.25,-320 92.25,-342.75 136,-342.75 136,-320 92.25,-320"/>
<text xml:space="preserve" text-anchor="start" x="97.25" y="-328.25" font-family="Linux libertine" font-size="10.00">output: </text>
<polygon fill="none" stroke="black" points="136,-320 136,-342.75 194.75,-342.75 194.75,-320 136,-320"/>
<text xml:space="preserve" text-anchor="start" x="143.62" y="-328.25" font-family="Linux libertine" font-size="10.00">(1, 2, 20) </text>
</g>
<!-- 11&#45;&gt;19 -->
<g id="edge13" class="edge">
<title>11&#45;&gt;19</title>
<path fill="none" stroke="black" d="M144.96,-970.48C137.6,-960.81 129.53,-948.96 124,-937.25 113.78,-915.61 110,-909.18 110,-885.25 110,-885.25 110,-885.25 110,-430.25 110,-412.32 112.56,-392.49 115.32,-376.34"/>
<polygon fill="black" stroke="black" points="118.71,-377.27 117.05,-366.81 111.82,-376.02 118.71,-377.27"/>
</g>
<!-- 12&#45;&gt;13 -->
<g id="edge14" class="edge">
<title>12&#45;&gt;13</title>
<path fill="none" stroke="black" d="M323.58,-970.4C310.14,-954.63 291.74,-933.04 276.82,-915.54"/>
<polygon fill="black" stroke="black" points="279.52,-913.31 270.37,-907.97 274.19,-917.85 279.52,-913.31"/>
</g>
<!-- 14 -->
<g id="node15" class="node">
<title>14</title>
<polygon fill="aliceblue" stroke="none" points="327.5,-824.5 174.5,-824.5 174.5,-779 327.5,-779 327.5,-824.5"/>
<polygon fill="none" stroke="black" points="174.5,-779 174.5,-824.5 230.25,-824.5 230.25,-779 174.5,-779"/>
<text xml:space="preserve" text-anchor="start" x="179.5" y="-805" font-family="Linux libertine" font-size="10.00">unsqueeze</text>
<text xml:space="preserve" text-anchor="start" x="185.88" y="-792.25" font-family="Linux libertine" font-size="10.00">depth:2</text>
<polygon fill="none" stroke="black" points="230.25,-801.75 230.25,-824.5 274,-824.5 274,-801.75 230.25,-801.75"/>
<text xml:space="preserve" text-anchor="start" x="239.75" y="-810" font-family="Linux libertine" font-size="10.00">input:</text>
<polygon fill="none" stroke="black" points="274,-801.75 274,-824.5 327.5,-824.5 327.5,-801.75 274,-801.75"/>
<text xml:space="preserve" text-anchor="start" x="284.62" y="-810" font-family="Linux libertine" font-size="10.00">(1, 84) </text>
<polygon fill="none" stroke="black" points="230.25,-779 230.25,-801.75 274,-801.75 274,-779 230.25,-779"/>
<text xml:space="preserve" text-anchor="start" x="235.25" y="-787.25" font-family="Linux libertine" font-size="10.00">output: </text>
<polygon fill="none" stroke="black" points="274,-779 274,-801.75 327.5,-801.75 327.5,-779 274,-779"/>
<text xml:space="preserve" text-anchor="start" x="279" y="-787.25" font-family="Linux libertine" font-size="10.00">(1, 1, 84) </text>
</g>
<!-- 13&#45;&gt;14 -->
<g id="edge16" class="edge">
<title>13&#45;&gt;14</title>
<path fill="none" stroke="black" d="M251,-861.68C251,-853.74 251,-844.55 251,-835.83"/>
<polygon fill="black" stroke="black" points="254.5,-835.9 251,-825.9 247.5,-835.9 254.5,-835.9"/>
</g>
<!-- 14&#45;&gt;15 -->
<g id="edge17" class="edge">
<title>14&#45;&gt;15</title>
<path fill="none" stroke="black" d="M251,-779.38C251,-765.85 251,-748.08 251,-732.79"/>
<polygon fill="black" stroke="black" points="254.5,-733.2 251,-723.2 247.5,-733.2 254.5,-733.2"/>
</g>
<!-- 16 -->
<g id="node17" class="node">
<title>16</title>
<polygon fill="aliceblue" stroke="none" points="320.88,-639.25 173.12,-639.25 173.12,-593.75 320.88,-593.75 320.88,-639.25"/>
<polygon fill="none" stroke="black" points="173.12,-593.75 173.12,-639.25 218.38,-639.25 218.38,-593.75 173.12,-593.75"/>
<text xml:space="preserve" text-anchor="start" x="178.12" y="-619.75" font-family="Linux libertine" font-size="10.00">squeeze</text>
<text xml:space="preserve" text-anchor="start" x="179.25" y="-607" font-family="Linux libertine" font-size="10.00">depth:2</text>
<polygon fill="none" stroke="black" points="218.38,-616.5 218.38,-639.25 262.12,-639.25 262.12,-616.5 218.38,-616.5"/>
<text xml:space="preserve" text-anchor="start" x="227.88" y="-624.75" font-family="Linux libertine" font-size="10.00">input:</text>
<polygon fill="none" stroke="black" points="262.12,-616.5 262.12,-639.25 320.88,-639.25 320.88,-616.5 262.12,-616.5"/>
<text xml:space="preserve" text-anchor="start" x="267.12" y="-624.75" font-family="Linux libertine" font-size="10.00">(1, 1, 128) </text>
<polygon fill="none" stroke="black" points="218.38,-593.75 218.38,-616.5 262.12,-616.5 262.12,-593.75 218.38,-593.75"/>
<text xml:space="preserve" text-anchor="start" x="223.38" y="-602" font-family="Linux libertine" font-size="10.00">output: </text>
<polygon fill="none" stroke="black" points="262.12,-593.75 262.12,-616.5 320.88,-616.5 320.88,-593.75 262.12,-593.75"/>
<text xml:space="preserve" text-anchor="start" x="272.75" y="-602" font-family="Linux libertine" font-size="10.00">(1, 128) </text>
</g>
<!-- 15&#45;&gt;16 -->
<g id="edge19" class="edge">
<title>15&#45;&gt;16</title>
<path fill="none" stroke="black" d="M249.93,-676.43C249.53,-668.49 249.08,-659.3 248.64,-650.58"/>
<polygon fill="black" stroke="black" points="252.14,-650.46 248.15,-640.64 245.15,-650.81 252.14,-650.46"/>
</g>
<!-- 17 -->
<g id="node18" class="node">
<title>17</title>
<polygon fill="#c1ffc1" stroke="none" points="302.38,-536.5 151.62,-536.5 151.62,-491 302.38,-491 302.38,-536.5"/>
<polygon fill="none" stroke="black" points="151.62,-491 151.62,-536.5 211.12,-536.5 211.12,-491 151.62,-491"/>
<text xml:space="preserve" text-anchor="start" x="156.62" y="-517" font-family="Linux libertine" font-size="10.00">LeakyReLU</text>
<text xml:space="preserve" text-anchor="start" x="164.88" y="-504.25" font-family="Linux libertine" font-size="10.00">depth:3</text>
<polygon fill="none" stroke="black" points="211.12,-513.75 211.12,-536.5 254.88,-536.5 254.88,-513.75 211.12,-513.75"/>
<text xml:space="preserve" text-anchor="start" x="220.62" y="-522" font-family="Linux libertine" font-size="10.00">input:</text>
<polygon fill="none" stroke="black" points="254.88,-513.75 254.88,-536.5 302.38,-536.5 302.38,-513.75 254.88,-513.75"/>
<text xml:space="preserve" text-anchor="start" x="259.88" y="-522" font-family="Linux libertine" font-size="10.00">(1, 128) </text>
<polygon fill="none" stroke="black" points="211.12,-491 211.12,-513.75 254.88,-513.75 254.88,-491 211.12,-491"/>
<text xml:space="preserve" text-anchor="start" x="216.12" y="-499.25" font-family="Linux libertine" font-size="10.00">output: </text>
<polygon fill="none" stroke="black" points="254.88,-491 254.88,-513.75 302.38,-513.75 302.38,-491 254.88,-491"/>
<text xml:space="preserve" text-anchor="start" x="259.88" y="-499.25" font-family="Linux libertine" font-size="10.00">(1, 128) </text>
</g>
<!-- 16&#45;&gt;17 -->
<g id="edge20" class="edge">
<title>16&#45;&gt;17</title>
<path fill="none" stroke="black" d="M242.76,-594.13C240.07,-580.6 236.54,-562.83 233.51,-547.54"/>
<polygon fill="black" stroke="black" points="236.98,-547.04 231.6,-537.92 230.11,-548.41 236.98,-547.04"/>
</g>
<!-- 18 -->
<g id="node19" class="node">
<title>18</title>
<polygon fill="#c1ffc1" stroke="none" points="290.12,-454 155.88,-454 155.88,-408.5 290.12,-408.5 290.12,-454"/>
<polygon fill="none" stroke="black" points="155.88,-408.5 155.88,-454 198.88,-454 198.88,-408.5 155.88,-408.5"/>
<text xml:space="preserve" text-anchor="start" x="163.88" y="-434.5" font-family="Linux libertine" font-size="10.00">Linear</text>
<text xml:space="preserve" text-anchor="start" x="160.88" y="-421.75" font-family="Linux libertine" font-size="10.00">depth:3</text>
<polygon fill="none" stroke="black" points="198.88,-431.25 198.88,-454 242.62,-454 242.62,-431.25 198.88,-431.25"/>
<text xml:space="preserve" text-anchor="start" x="208.38" y="-439.5" font-family="Linux libertine" font-size="10.00">input:</text>
<polygon fill="none" stroke="black" points="242.62,-431.25 242.62,-454 290.12,-454 290.12,-431.25 242.62,-431.25"/>
<text xml:space="preserve" text-anchor="start" x="247.62" y="-439.5" font-family="Linux libertine" font-size="10.00">(1, 128) </text>
<polygon fill="none" stroke="black" points="198.88,-408.5 198.88,-431.25 242.62,-431.25 242.62,-408.5 198.88,-408.5"/>
<text xml:space="preserve" text-anchor="start" x="203.88" y="-416.75" font-family="Linux libertine" font-size="10.00">output: </text>
<polygon fill="none" stroke="black" points="242.62,-408.5 242.62,-431.25 290.12,-431.25 290.12,-408.5 242.62,-408.5"/>
<text xml:space="preserve" text-anchor="start" x="250.25" y="-416.75" font-family="Linux libertine" font-size="10.00">(1, 20) </text>
</g>
<!-- 17&#45;&gt;18 -->
<g id="edge21" class="edge">
<title>17&#45;&gt;18</title>
<path fill="none" stroke="black" d="M225.93,-491.18C225.53,-483.24 225.08,-474.05 224.64,-465.33"/>
<polygon fill="black" stroke="black" points="228.14,-465.21 224.15,-455.39 221.15,-465.56 228.14,-465.21"/>
</g>
<!-- 18&#45;&gt;19 -->
<g id="edge22" class="edge">
<title>18&#45;&gt;19</title>
<path fill="none" stroke="black" d="M197.77,-408.65C185.12,-397.81 169.61,-384.53 155.93,-372.81"/>
<polygon fill="black" stroke="black" points="158.28,-370.21 148.4,-366.36 153.72,-375.53 158.28,-370.21"/>
</g>
<!-- 20 -->
<g id="node21" class="node">
<title>20</title>
<polygon fill="aliceblue" stroke="none" points="196.62,-283 47.38,-283 47.38,-237.5 196.62,-237.5 196.62,-283"/>
<polygon fill="none" stroke="black" points="47.38,-237.5 47.38,-283 99.38,-283 99.38,-237.5 47.38,-237.5"/>
<text xml:space="preserve" text-anchor="start" x="52.38" y="-263.5" font-family="Linux libertine" font-size="10.00">transpose</text>
<text xml:space="preserve" text-anchor="start" x="56.88" y="-250.75" font-family="Linux libertine" font-size="10.00">depth:1</text>
<polygon fill="none" stroke="black" points="99.38,-260.25 99.38,-283 143.12,-283 143.12,-260.25 99.38,-260.25"/>
<text xml:space="preserve" text-anchor="start" x="108.88" y="-268.5" font-family="Linux libertine" font-size="10.00">input:</text>
<polygon fill="none" stroke="black" points="143.12,-260.25 143.12,-283 196.62,-283 196.62,-260.25 143.12,-260.25"/>
<text xml:space="preserve" text-anchor="start" x="148.12" y="-268.5" font-family="Linux libertine" font-size="10.00">(1, 2, 20) </text>
<polygon fill="none" stroke="black" points="99.38,-237.5 99.38,-260.25 143.12,-260.25 143.12,-237.5 99.38,-237.5"/>
<text xml:space="preserve" text-anchor="start" x="104.38" y="-245.75" font-family="Linux libertine" font-size="10.00">output: </text>
<polygon fill="none" stroke="black" points="143.12,-237.5 143.12,-260.25 196.62,-260.25 196.62,-237.5 143.12,-237.5"/>
<text xml:space="preserve" text-anchor="start" x="148.12" y="-245.75" font-family="Linux libertine" font-size="10.00">(1, 20, 2) </text>
</g>
<!-- 19&#45;&gt;20 -->
<g id="edge23" class="edge">
<title>19&#45;&gt;20</title>
<path fill="none" stroke="black" d="M122,-320.18C122,-312.24 122,-303.05 122,-294.33"/>
<polygon fill="black" stroke="black" points="125.5,-294.4 122,-284.4 118.5,-294.4 125.5,-294.4"/>
</g>
<!-- 21 -->
<g id="node22" class="node">
<title>21</title>
<polygon fill="aliceblue" stroke="none" points="203.75,-200.5 40.25,-200.5 40.25,-155 203.75,-155 203.75,-200.5"/>
<polygon fill="none" stroke="black" points="40.25,-155 40.25,-200.5 96,-200.5 96,-155 40.25,-155"/>
<text xml:space="preserve" text-anchor="start" x="45.25" y="-181" font-family="Linux libertine" font-size="10.00">interpolate</text>
<text xml:space="preserve" text-anchor="start" x="51.62" y="-168.25" font-family="Linux libertine" font-size="10.00">depth:1</text>
<polygon fill="none" stroke="black" points="96,-177.75 96,-200.5 139.75,-200.5 139.75,-177.75 96,-177.75"/>
<text xml:space="preserve" text-anchor="start" x="105.5" y="-186" font-family="Linux libertine" font-size="10.00">input:</text>
<polygon fill="none" stroke="black" points="139.75,-177.75 139.75,-200.5 203.75,-200.5 203.75,-177.75 139.75,-177.75"/>
<text xml:space="preserve" text-anchor="start" x="150" y="-186" font-family="Linux libertine" font-size="10.00">(1, 20, 2) </text>
<polygon fill="none" stroke="black" points="96,-155 96,-177.75 139.75,-177.75 139.75,-155 96,-155"/>
<text xml:space="preserve" text-anchor="start" x="101" y="-163.25" font-family="Linux libertine" font-size="10.00">output: </text>
<polygon fill="none" stroke="black" points="139.75,-155 139.75,-177.75 203.75,-177.75 203.75,-155 139.75,-155"/>
<text xml:space="preserve" text-anchor="start" x="144.75" y="-163.25" font-family="Linux libertine" font-size="10.00">(1, 20, 500) </text>
</g>
<!-- 20&#45;&gt;21 -->
<g id="edge24" class="edge">
<title>20&#45;&gt;21</title>
<path fill="none" stroke="black" d="M122,-237.68C122,-229.74 122,-220.55 122,-211.83"/>
<polygon fill="black" stroke="black" points="125.5,-211.9 122,-201.9 118.5,-211.9 125.5,-211.9"/>
</g>
<!-- 22 -->
<g id="node23" class="node">
<title>22</title>
<polygon fill="aliceblue" stroke="none" points="201.88,-118 42.12,-118 42.12,-72.5 201.88,-72.5 201.88,-118"/>
<polygon fill="none" stroke="black" points="42.12,-72.5 42.12,-118 94.12,-118 94.12,-72.5 42.12,-72.5"/>
<text xml:space="preserve" text-anchor="start" x="47.12" y="-98.5" font-family="Linux libertine" font-size="10.00">transpose</text>
<text xml:space="preserve" text-anchor="start" x="51.62" y="-85.75" font-family="Linux libertine" font-size="10.00">depth:1</text>
<polygon fill="none" stroke="black" points="94.12,-95.25 94.12,-118 137.88,-118 137.88,-95.25 94.12,-95.25"/>
<text xml:space="preserve" text-anchor="start" x="103.62" y="-103.5" font-family="Linux libertine" font-size="10.00">input:</text>
<polygon fill="none" stroke="black" points="137.88,-95.25 137.88,-118 201.88,-118 201.88,-95.25 137.88,-95.25"/>
<text xml:space="preserve" text-anchor="start" x="142.88" y="-103.5" font-family="Linux libertine" font-size="10.00">(1, 20, 500) </text>
<polygon fill="none" stroke="black" points="94.12,-72.5 94.12,-95.25 137.88,-95.25 137.88,-72.5 94.12,-72.5"/>
<text xml:space="preserve" text-anchor="start" x="99.12" y="-80.75" font-family="Linux libertine" font-size="10.00">output: </text>
<polygon fill="none" stroke="black" points="137.88,-72.5 137.88,-95.25 201.88,-95.25 201.88,-72.5 137.88,-72.5"/>
<text xml:space="preserve" text-anchor="start" x="142.88" y="-80.75" font-family="Linux libertine" font-size="10.00">(1, 500, 20) </text>
</g>
<!-- 21&#45;&gt;22 -->
<g id="edge25" class="edge">
<title>21&#45;&gt;22</title>
<path fill="none" stroke="black" d="M122,-155.18C122,-147.24 122,-138.05 122,-129.33"/>
<polygon fill="black" stroke="black" points="125.5,-129.4 122,-119.4 118.5,-129.4 125.5,-129.4"/>
</g>
<!-- 23 -->
<g id="node24" class="node">
<title>23</title>
<polygon fill="lightyellow" stroke="none" points="186.38,-35.5 57.62,-35.5 57.62,0 186.38,0 186.38,-35.5"/>
<polygon fill="none" stroke="black" points="57.62,0 57.62,-35.5 125.38,-35.5 125.38,0 57.62,0"/>
<text xml:space="preserve" text-anchor="start" x="62.62" y="-21" font-family="Linux libertine" font-size="10.00">output&#45;tensor</text>
<text xml:space="preserve" text-anchor="start" x="75" y="-8.25" font-family="Linux libertine" font-size="10.00">depth:0</text>
<polygon fill="none" stroke="black" points="125.38,0 125.38,-35.5 186.38,-35.5 186.38,0 125.38,0"/>
<text xml:space="preserve" text-anchor="start" x="130.38" y="-14.62" font-family="Linux libertine" font-size="10.00">(1, 500, 20)</text>
</g>
<!-- 22&#45;&gt;23 -->
<g id="edge26" class="edge">
<title>22&#45;&gt;23</title>
<path fill="none" stroke="black" d="M122,-72.82C122,-64.76 122,-55.47 122,-46.89"/>
<polygon fill="black" stroke="black" points="125.5,-46.95 122,-36.95 118.5,-46.95 125.5,-46.95"/>
</g>
</g>
</svg>
